<?xml version="1.0" standalone="no"?>
<!DOCTYPE svg PUBLIC "-//W3C//DTD SVG 20010904//EN" "http://www.w3.org/TR/2001/REC-SVG-20010904/DTD/svg10.dtd">
<!-- Created using Krita: https://krita.org -->
<svg xmlns="http://www.w3.org/2000/svg" 
    xmlns:xlink="http://www.w3.org/1999/xlink"
    xmlns:krita="http://krita.org/namespaces/svg/krita"
    xmlns:sodipodi="http://sodipodi.sourceforge.net/DTD/sodipodi-0.dtd"
    width="225pt"
    height="225pt"
    viewBox="0 0 225 225">
<defs/>
<path id="Path" transform="matrix(0.580906419091978 0 0 0.580906419091978 173.994753525077 144.757136337424)" fill="#000000" stroke="#000000" stroke-opacity="0" stroke-width="0" stroke-linecap="square" stroke-linejoin="bevel" d="M7.1 39.58C4.08 38.7 1.71 37.58 0 36.22L3.02 30.48C4.78 31.74 6.92 32.75 9.44 33.5C11.96 34.25 14.5 34.63 17.07 34.63C23.42 34.63 26.59 32.82 26.59 29.19C26.59 27.98 26.16 27.02 25.3 26.32C24.44 25.61 23.37 25.1 22.09 24.77C20.81 24.44 18.98 24.08 16.61 23.67C13.39 23.17 10.75 22.59 8.71 21.93C6.67 21.28 4.92 20.17 3.46 18.6C2 17.04 1.27 14.85 1.27 12.02C1.27 8.39 2.78 5.48 5.8 3.29C8.82 1.1 12.88 0 17.97 0C20.64 0 23.31 0.33 25.98 0.98C28.65 1.64 30.84 2.52 32.56 3.63L29.46 9.37C26.18 7.25 22.33 6.2 17.9 6.2C14.83 6.2 12.48 6.7 10.87 7.71C9.26 8.72 8.45 10.05 8.45 11.72C8.45 13.03 8.9 14.06 9.81 14.82C10.72 15.58 11.84 16.13 13.17 16.48C14.5 16.83 16.38 17.24 18.8 17.69C22.02 18.24 24.63 18.84 26.62 19.47C28.61 20.1 30.31 21.17 31.72 22.68C33.13 24.19 33.84 26.31 33.84 29.03C33.84 32.66 32.29 35.54 29.19 37.68C26.09 39.82 21.87 40.8902 16.53 40.8902C13.27 40.9 10.12 40.46 7.1 39.58Z"/><path id="Path1" transform="matrix(0.580906419091978 0 0 0.580906419091978 146.994223165681 144.98949890506)" fill="#000000" stroke="#000000" stroke-opacity="0" stroke-width="0" stroke-linecap="square" stroke-linejoin="bevel" d="M37.71 0L37.71 40.06L30.83 40.06L30.83 34.01C29.37 36.08 27.44 37.68 25.05 38.81C22.66 39.94 20.05 40.51 17.23 40.51C11.89 40.51 7.68 39.04 4.61 36.09C1.54 33.14 0 28.8 0 23.05L0 0L7.25 0L7.25 22.22C7.25 26.1 8.18 29.03 10.05 31.02C11.91 33.01 14.58 34 18.06 34C21.89 34 24.91 32.84 27.13 30.52C29.35 28.2 30.46 24.93 30.46 20.69L30.46 0Z"/><path id="Path2" transform="matrix(0.580906419091978 0 0 0.580906419091978 119.987883742096 144.768754465805)" fill="#000000" stroke="#000000" stroke-opacity="0" stroke-width="0" stroke-linecap="square" stroke-linejoin="bevel" d="M10.24 38.24C7.04 36.48 4.53 34.05 2.72 30.95C0.91 27.85 0 24.34 0 20.41C0 16.48 0.91 12.97 2.72 9.87C4.53 6.77 7.04 4.35 10.24 2.61C13.44 0.87 17.08 0 21.16 0C24.79 0 28.02 0.73 30.87 2.19C33.72 3.65 35.92 5.77 37.48 8.54L31.96 12.09C30.7 10.18 29.14 8.74 27.27 7.78C25.4 6.82 23.34 6.34 21.07 6.34C18.45 6.34 16.09 6.92 14 8.08C11.91 9.24 10.27 10.89 9.09 13.03C7.91 15.17 7.31 17.63 7.31 20.4C7.31 23.22 7.9 25.7 9.09 27.84C10.27 29.98 11.91 31.63 14 32.79C16.09 33.95 18.45 34.53 21.07 34.53C23.34 34.53 25.4 34.05 27.27 33.09C29.13 32.13 30.7 30.7 31.96 28.78L37.48 32.26C35.92 35.03 33.71 37.16 30.87 38.65C28.02 40.14 24.79 40.88 21.16 40.88C17.08 40.88 13.44 40 10.24 38.24Z"/><path id="Shape" transform="matrix(0.580906419091978 0 0 0.580906419091978 109.142360897648 135.021144753442)" fill="#000000" stroke="#000000" stroke-opacity="0" stroke-width="0" stroke-linecap="square" stroke-linejoin="bevel" d="M1.4 8.09C0.47 7.18 0 6.08 0 4.76C0 3.45 0.46 2.33 1.4 1.4C2.33 0.47 3.5 0 4.91 0C6.32 0 7.49 0.44 8.42 1.32C9.35 2.2 9.82 3.3 9.82 4.61C9.82 5.97 9.35 7.12 8.42 8.05C7.49 8.98 6.32 9.45 4.91 9.45C3.51 9.45 2.34 8.99 1.4 8.09ZM1.29 17.16L8.54 17.16L8.54 57.22L1.29 57.22Z"/><path id="Shape1" transform="matrix(0.580906419091978 0 0 0.580906419091978 79.9460042740854 144.768754465805)" fill="#000000" stroke="#000000" stroke-opacity="0" stroke-width="0" stroke-linecap="square" stroke-linejoin="bevel" d="M31.67 2.57C34.74 4.28 37.15 6.68 38.89 9.75C40.63 12.82 41.5 16.38 41.5 20.41C41.5 24.44 40.63 28.01 38.89 31.1C37.15 34.2 34.75 36.61 31.67 38.32C28.6 40.03 25.12 40.89 21.24 40.89C18.37 40.89 15.74 40.34 13.34 39.23C10.95 38.12 8.92 36.51 7.26 34.39L7.26 55.1L0 55.1L0 0.38L6.95 0.38L6.95 6.73C8.56 4.51 10.6 2.84 13.07 1.7C15.54 0.57 18.26 0 21.23 0C25.12 0 28.6 0.86 31.67 2.57ZM27.56 32.76C29.6 31.58 31.21 29.91 32.4 27.77C33.58 25.63 34.18 23.17 34.18 20.4C34.18 17.63 33.59 15.17 32.4 13.03C31.22 10.89 29.6 9.24 27.56 8.08C25.52 6.92 23.21 6.34 20.64 6.34C18.12 6.34 15.84 6.93 13.8 8.12C11.76 9.3 10.15 10.95 8.96 13.07C7.77 15.19 7.18 17.63 7.18 20.4C7.18 23.17 7.76 25.63 8.92 27.77C10.08 29.91 11.69 31.57 13.76 32.76C15.83 33.94 18.12 34.54 20.64 34.54C23.21 34.54 25.52 33.94 27.56 32.76Z"/><path id="Shape2" transform="matrix(0.580906419091978 0 0 0.580906419091978 49.924760535412 144.768754465805)" fill="#000000" stroke="#000000" stroke-opacity="0" stroke-width="0" stroke-linecap="square" stroke-linejoin="bevel" d="M10.12 38.24C6.95 36.48 4.46 34.05 2.68 30.95C0.89 27.85 0 24.34 0 20.41C0 16.48 0.89 12.97 2.68 9.87C4.47 6.77 6.95 4.35 10.12 2.61C13.29 0.87 16.87 0 20.85 0C24.83 0 28.39 0.87 31.54 2.61C34.69 4.35 37.16 6.77 38.95 9.87C40.74 12.97 41.63 16.48 41.63 20.41C41.63 24.34 40.73 27.85 38.95 30.95C37.16 34.05 34.69 36.48 31.54 38.24C28.39 40 24.83 40.89 20.85 40.89C16.87 40.88 13.29 40 10.12 38.24ZM27.77 32.76C29.81 31.58 31.41 29.91 32.57 27.77C33.73 25.63 34.31 23.17 34.31 20.4C34.31 17.63 33.73 15.17 32.57 13.03C31.41 10.89 29.81 9.24 27.77 8.08C25.73 6.92 23.42 6.34 20.85 6.34C18.28 6.34 15.97 6.92 13.93 8.08C11.89 9.24 10.28 10.89 9.09 13.03C7.91 15.17 7.31 17.63 7.31 20.4C7.31 23.17 7.9 25.63 9.09 27.77C10.27 29.91 11.89 31.57 13.93 32.76C15.97 33.94 18.28 34.54 20.85 34.54C23.42 34.54 25.73 33.94 27.77 32.76Z"/><path id="Path3" transform="matrix(0.580906419091978 0 0 0.580906419091978 31.3473732528505 139.894949609623)" fill="#000000" stroke="#000000" stroke-opacity="0" stroke-width="0" stroke-linecap="square" stroke-linejoin="bevel" d="M28.27 46.48C27.21 47.39 25.9 48.08 24.34 48.56C22.78 49.04 21.17 49.28 19.5 49.28C15.47 49.28 12.35 48.2 10.13 46.03C7.91 43.86 6.8 40.77 6.8 36.73L6.8 14.74L0 14.74L0 8.77L6.8 8.77L6.8 0L14.06 0L14.06 8.77L25.55 8.77L25.55 14.74L14.06 14.74L14.06 36.43C14.06 38.6 14.6 40.26 15.68 41.42C16.76 42.58 18.31 43.16 20.33 43.16C22.55 43.16 24.44 42.53 26 41.27Z"/><path id="hagedis_2_" transform="matrix(0.952575598341355 0 0 0.952575598341355 49.2949577864575 38.9073264034231)" fill="#000000" stroke="#000000" stroke-opacity="0" stroke-width="0" stroke-linecap="square" stroke-linejoin="bevel" d="M78.5203 30.124C85.3714 34.749 84.8124 40.9089 90.3929 49.4576C95.9835 58.0062 101.717 58.982 101.717 58.982C101.717 58.982 104.37 58.4229 106.88 57.3048C109.401 56.1867 118.621 43.4298 118.621 43.4298L111.353 46.7944L113.162 36.9853L104.918 47.6279L100.588 38.8048L100.446 50.0166C98.4841 49.8845 97.0915 48.4716 96.2478 46.093C95.4143 43.7144 93.605 39.0894 93.605 39.0894L101.706 30.5408C90.3827 29.4125 86.4692 26.4749 84.3753 24.2284C82.2813 21.982 82.2203 21.7889 81.1225 21.6567C80.4212 21.5652 79.2014 21.8498 79.2014 21.8498C74.4544 22.1345 65.0926 16.9504 65.0926 16.9504C65.0926 16.9504 68.7214 15.5476 72.7772 13.3114C76.8228 11.065 77.8088 7.70039 77.8088 7.70039L73.753 9.5199L73.4786 1.38802L70.1242 7.69023L67.0442 0.9611L67.1865 8.38143L59.3596 14.6836L56.8489 18.1905L64.6657 22.5309C70.6934 26.6172 71.6794 25.499 78.5203 30.124ZM68.7519 48.0345C72.8484 49.7015 76.5789 54.9059 76.5789 54.9059L83.8772 48.1666C83.6333 33.4378 74.1088 30.49 74.1088 30.49C73.0517 33.1125 59.1055 43.5619 59.1055 43.5619C60.0915 44.9545 64.2896 46.215 68.7519 48.0345ZM47.4464 41.6713C49.5607 41.6713 53.6978 45.107 54.1959 49.3457C54.7041 53.5946 53.5962 57.6301 56.0154 63.1903C58.272 68.3642 57.1132 70.8241 56.9506 71.1392C57.4995 69.8889 61.169 65.6095 62.4802 64.5117C63.7813 63.3936 65.2959 62.5905 71.5473 68.8622C77.7986 75.1238 58.5769 77.8276 58.5769 77.8276L65.2959 92.404L65.489 84.9532L70.3986 91.1537L69.7786 83.2963L74.8915 85.2886L70.9679 80.318L80.1264 76.4655C80.1264 76.4655 78.1849 67.5306 76.3756 62.987C74.5662 58.4433 71.2322 54.6924 68.9146 52.4765C65.9566 49.6405 60.244 48.2276 57.6214 45.1985C54.9989 42.1694 48.1478 30.0427 48.1478 30.0427L46.0335 33.3768C43.9192 36.4059 40.3819 43.379 40.3819 43.379L34.039 39.74L36.8648 44.6902L32.0264 45.7067L35.7569 47.6279L34.039 50.7587L44.458 49.2644ZM5.90272 65.4875C-2.60525 74.4834 0.586508 81.6496 0.586508 81.6496C6.98019 89.4257 23.7827 89.1004 32.6769 86.6812C41.8456 84.1908 51.0753 78.2952 52.4475 76.3131C53.8198 74.3309 54.6635 69.6958 53.4945 66.4328C51.3802 60.5372 51.8376 56.4916 51.8376 56.4916C49.8657 63.5054 45.6066 68.232 34.8115 76.0081C24.0165 83.7842 12.9165 78.1427 9.57223 75.7032C6.228 73.2636 7.90519 69.2993 14.1362 64.5727C20.3775 59.846 31.8942 61.0048 34.2118 62.743C35.5536 63.7493 35.889 66.5548 34.0593 68.3845C32.2297 70.2142 30.095 70.9765 27.8181 69.2993C25.5412 67.6221 27.2082 64.8776 27.2082 64.8776C27.2082 64.8776 24.9313 64.7251 23.2541 67.7848C21.5871 70.8342 22.5019 71.9015 28.8854 73.1213C35.2791 74.3411 36.6412 70.8342 38.4709 67.1647C40.3005 63.5054 38.7657 60.7914 32.2297 58.1993C25.6632 55.5971 14.4209 56.4916 5.90272 65.4875ZM119.586 9.83501C118.072 10.2111 113.548 12.488 113.355 13.2402C113.355 13.2402 122.798 11.1666 123.927 11.5427C125.065 11.9188 126.763 11.7257 128.643 10.2111C130.534 8.69654 134.305 6.05369 132.79 4.15286C131.276 2.2622 129.771 -0.766923 127.312 0.178408C124.862 1.12374 121.843 1.49984 122.219 2.83143C122.595 4.15286 122.971 5.29132 123.53 5.48445C124.099 5.67759 125.045 6.62292 126.366 5.67759C127.688 4.73226 127.871 3.41083 127.871 3.41083C127.871 3.41083 126.549 4.16303 125.98 4.16303C125.421 4.16303 124.659 3.98006 124.852 3.41083C125.035 2.8416 126.732 2.07923 126.732 2.07923C126.732 2.07923 128.623 1.70313 129.375 2.27236C130.127 2.8416 130.514 5.30149 130.514 5.30149C130.514 5.30149 128.623 8.70671 127.688 9.08281C126.742 9.46907 125.228 9.65204 124.476 9.65204C123.744 9.64187 121.091 9.44874 119.586 9.83501ZM96.136 12.9759C97.2237 12.9759 98.0978 13.9823 98.0978 15.2224C98.0978 16.4625 97.2237 17.4688 96.136 17.4688C95.0585 17.4688 94.1742 16.4625 94.1742 15.2224C94.1742 13.9823 95.0585 12.9759 96.136 12.9759ZM109.981 11.9086C114.697 6.61275 119.444 6.19599 110.763 2.9839C104.553 0.68665 96.0852 1.65231 89.3256 3.82759C85.8187 4.95588 83.1149 12.8031 83.9585 15.9034C84.8022 19.0037 83.2572 19.7051 83.2572 19.7051C83.2572 19.7051 84.1008 19.5628 86.3473 21.1078C88.5937 22.663 88.8783 23.9235 93.6456 24.4927C98.4231 25.0619 107.693 25.1941 107.693 25.1941L118.001 14.4295L101.93 18.5768C101.94 18.5666 107.805 14.3584 109.981 11.9086Z"/>
</svg>
