<svg viewBox="0 0 425 100" version="1.1" xmlns="http://www.w3.org/2000/svg" xmlns:xlink="http://www.w3.org/1999/xlink">
    <g stroke="none" stroke-width="1" fill="#000" fill-rule="evenodd">
		<g fill="#000" fill-rule="nonzero">
            <g id="Group" transform="translate(144.000000, 15.000000)">
                <path d="M253.32,56.54 C250.3,55.66 247.93,54.54 246.22,53.18 L249.24,47.44 C251,48.7 253.14,49.71 255.66,50.46 C258.18,51.21 260.72,51.59 263.29,51.59 C269.64,51.59 272.81,49.78 272.81,46.15 C272.81,44.94 272.38,43.98 271.52,43.28 C270.66,42.57 269.59,42.06 268.31,41.73 C267.03,41.4 265.2,41.04 262.83,40.63 C259.61,40.13 256.97,39.55 254.93,38.89 C252.89,38.24 251.14,37.13 249.68,35.56 C248.22,34 247.49,31.81 247.49,28.98 C247.49,25.35 249,22.44 252.02,20.25 C255.04,18.06 259.1,16.96 264.19,16.96 C266.86,16.96 269.53,17.29 272.2,17.94 C274.87,18.6 277.06,19.48 278.78,20.59 L275.68,26.33 C272.4,24.21 268.55,23.16 264.12,23.16 C261.05,23.16 258.7,23.66 257.09,24.67 C255.48,25.68 254.67,27.01 254.67,28.68 C254.67,29.99 255.12,31.02 256.03,31.78 C256.94,32.54 258.06,33.09 259.39,33.44 C260.72,33.79 262.6,34.2 265.02,34.65 C268.24,35.2 270.85,35.8 272.84,36.43 C274.83,37.06 276.53,38.13 277.94,39.64 C279.35,41.15 280.06,43.27 280.06,45.99 C280.06,49.62 278.51,52.5 275.41,54.64 C272.31,56.78 268.09,57.8501667 262.75,57.8501667 C259.49,57.86 256.34,57.42 253.32,56.54 Z" id="Path"></path>
                <path d="M237.45,17.36 L237.45,57.42 L230.57,57.42 L230.57,51.37 C229.11,53.44 227.18,55.04 224.79,56.17 C222.4,57.3 219.79,57.87 216.97,57.87 C211.63,57.87 207.42,56.4 204.35,53.45 C201.28,50.5 199.74,46.16 199.74,40.41 L199.74,17.36 L206.99,17.36 L206.99,39.58 C206.99,43.46 207.92,46.39 209.79,48.38 C211.65,50.37 214.32,51.36 217.8,51.36 C221.63,51.36 224.65,50.2 226.87,47.88 C229.09,45.56 230.2,42.29 230.2,38.05 L230.2,17.36 L237.45,17.36 Z" id="Path"></path>
                <path d="M163.49,55.22 C160.29,53.46 157.78,51.03 155.97,47.93 C154.16,44.83 153.25,41.32 153.25,37.39 C153.25,33.46 154.16,29.95 155.97,26.85 C157.78,23.75 160.29,21.33 163.49,19.59 C166.69,17.85 170.33,16.98 174.41,16.98 C178.04,16.98 181.27,17.71 184.12,19.17 C186.97,20.63 189.17,22.75 190.73,25.52 L185.21,29.07 C183.95,27.16 182.39,25.72 180.52,24.76 C178.65,23.8 176.59,23.32 174.32,23.32 C171.7,23.32 169.34,23.9 167.25,25.06 C165.16,26.22 163.52,27.87 162.34,30.01 C161.16,32.15 160.56,34.61 160.56,37.38 C160.56,40.2 161.15,42.68 162.34,44.82 C163.52,46.96 165.16,48.61 167.25,49.77 C169.34,50.93 171.7,51.51 174.32,51.51 C176.59,51.51 178.65,51.03 180.52,50.07 C182.38,49.11 183.95,47.68 185.21,45.76 L190.73,49.24 C189.17,52.01 186.96,54.14 184.12,55.63 C181.27,57.12 178.04,57.86 174.41,57.86 C170.33,57.86 166.69,56.98 163.49,55.22 Z" id="Path"></path>
                <path d="M135.98,8.29 C135.05,7.38 134.58,6.28 134.58,4.96 C134.58,3.65 135.04,2.53 135.98,1.6 C136.91,0.67 138.08,0.2 139.49,0.2 C140.9,0.2 142.07,0.64 143,1.52 C143.93,2.4 144.4,3.5 144.4,4.81 C144.4,6.17 143.93,7.32 143,8.25 C142.07,9.18 140.9,9.65 139.49,9.65 C138.09,9.65 136.92,9.19 135.98,8.29 Z M135.87,17.36 L143.12,17.36 L143.12,57.42 L135.87,57.42 L135.87,17.36 Z" id="Shape"></path>
                <path d="M115.99,19.55 C119.06,21.26 121.47,23.66 123.21,26.73 C124.95,29.8 125.82,33.36 125.82,37.39 C125.82,41.42 124.95,44.99 123.21,48.08 C121.47,51.18 119.07,53.59 115.99,55.3 C112.92,57.01 109.44,57.87 105.56,57.87 C102.69,57.87 100.06,57.32 97.66,56.21 C95.27,55.1 93.24,53.49 91.58,51.37 L91.58,72.08 L84.32,72.08 L84.32,17.36 L91.27,17.36 L91.27,23.71 C92.88,21.49 94.92,19.82 97.39,18.68 C99.86,17.55 102.58,16.98 105.55,16.98 C109.44,16.98 112.92,17.84 115.99,19.55 Z M111.88,49.74 C113.92,48.56 115.53,46.89 116.72,44.75 C117.9,42.61 118.5,40.15 118.5,37.38 C118.5,34.61 117.91,32.15 116.72,30.01 C115.54,27.87 113.92,26.22 111.88,25.06 C109.84,23.9 107.53,23.32 104.96,23.32 C102.44,23.32 100.16,23.91 98.12,25.1 C96.08,26.28 94.47,27.93 93.28,30.05 C92.09,32.17 91.5,34.61 91.5,37.38 C91.5,40.15 92.08,42.61 93.24,44.75 C94.4,46.89 96.01,48.55 98.08,49.74 C100.15,50.92 102.44,51.52 104.96,51.52 C107.53,51.52 109.84,50.92 111.88,49.74 Z" id="Shape"></path>
                <path d="M42.76,55.22 C39.59,53.46 37.1,51.03 35.32,47.93 C33.53,44.83 32.64,41.32 32.64,37.39 C32.64,33.46 33.53,29.95 35.32,26.85 C37.11,23.75 39.59,21.33 42.76,19.59 C45.93,17.85 49.51,16.98 53.49,16.98 C57.47,16.98 61.03,17.85 64.18,19.59 C67.33,21.33 69.8,23.75 71.59,26.85 C73.38,29.95 74.27,33.46 74.27,37.39 C74.27,41.32 73.37,44.83 71.59,47.93 C69.8,51.03 67.33,53.46 64.18,55.22 C61.03,56.98 57.47,57.87 53.49,57.87 C49.51,57.86 45.93,56.98 42.76,55.22 Z M60.41,49.74 C62.45,48.56 64.05,46.89 65.21,44.75 C66.37,42.61 66.95,40.15 66.95,37.38 C66.95,34.61 66.37,32.15 65.21,30.01 C64.05,27.87 62.45,26.22 60.41,25.06 C58.37,23.9 56.06,23.32 53.49,23.32 C50.92,23.32 48.61,23.9 46.57,25.06 C44.53,26.22 42.92,27.87 41.73,30.01 C40.55,32.15 39.95,34.61 39.95,37.38 C39.95,40.15 40.54,42.61 41.73,44.75 C42.91,46.89 44.53,48.55 46.57,49.74 C48.61,50.92 50.92,51.52 53.49,51.52 C56.06,51.52 58.37,50.92 60.41,49.74 Z" id="Shape"></path>
                <path d="M28.93,55.07 C27.87,55.98 26.56,56.67 25,57.15 C23.44,57.63 21.83,57.87 20.16,57.87 C16.13,57.87 13.01,56.79 10.79,54.62 C8.57,52.45 7.46,49.36 7.46,45.32 L7.46,23.33 L0.66,23.33 L0.66,17.36 L7.46,17.36 L7.46,8.59 L14.72,8.59 L14.72,17.36 L26.21,17.36 L26.21,23.33 L14.72,23.33 L14.72,45.02 C14.72,47.19 15.26,48.85 16.34,50.01 C17.42,51.17 18.97,51.75 20.99,51.75 C23.21,51.75 25.1,51.12 26.66,49.86 L28.93,55.07 Z" id="Path"></path>
            </g>
            <path d="M78.21,29.83 C84.95,34.38 84.4,40.44 89.89,48.85 C95.39,57.26 101.03,58.22 101.03,58.22 C101.03,58.22 103.64,57.67 106.11,56.57 C108.59,55.47 117.66,42.92 117.66,42.92 L110.51,46.23 L112.29,36.58 L104.18,47.05 L99.92,38.37 L99.78,49.4 C97.85,49.27 96.48,47.88 95.65,45.54 C94.83,43.2 93.05,38.65 93.05,38.65 L101.02,30.24 C89.88,29.13 86.03,26.24 83.97,24.03 C81.91,21.82 81.85,21.63 80.77,21.5 C80.08,21.41 78.88,21.69 78.88,21.69 C74.21,21.97 65,16.87 65,16.87 C65,16.87 68.57,15.49 72.56,13.29 C76.54,11.08 77.51,7.77 77.51,7.77 L73.52,9.56 L73.25,1.56 L69.95,7.76 L66.92,1.14 L67.06,8.44 L59.36,14.64 L56.89,18.09 L64.58,22.36 C70.51,26.38 71.48,25.28 78.21,29.83 Z M68.6,47.45 C72.63,49.09 76.3,54.21 76.3,54.21 L83.48,47.58 C83.24,33.09 73.87,30.19 73.87,30.19 C72.83,32.77 59.11,43.05 59.11,43.05 C60.08,44.42 64.21,45.66 68.6,47.45 L68.6,47.45 Z M47.64,41.19 C49.72,41.19 53.79,44.57 54.28,48.74 C54.78,52.92 53.69,56.89 56.07,62.36 C58.29,67.45 57.15,69.87 56.99,70.18 C57.53,68.95 61.14,64.74 62.43,63.66 C63.71,62.56 65.2,61.77 71.35,67.94 C77.5,74.1 58.59,76.76 58.59,76.76 L65.2,91.1 L65.39,83.77 L70.22,89.87 L69.61,82.14 L74.64,84.1 L70.78,79.21 L79.79,75.42 C79.79,75.42 77.88,66.63 76.1,62.16 C74.32,57.69 71.04,54 68.76,51.82 C65.85,49.03 60.23,47.64 57.65,44.66 C55.07,41.68 48.33,29.75 48.33,29.75 L46.25,33.03 C44.17,36.01 40.69,42.87 40.69,42.87 L34.45,39.29 L37.23,44.16 L32.47,45.16 L36.14,47.05 L34.45,50.13 L44.7,48.66 L47.64,41.19 L47.64,41.19 Z M6.77,64.62 C-1.6,73.47 1.54,80.52 1.54,80.52 C7.83,88.17 24.36,87.85 33.11,85.47 C42.13,83.02 51.21,77.22 52.56,75.27 C53.91,73.32 54.74,68.76 53.59,65.55 C51.51,59.75 51.96,55.77 51.96,55.77 C50.02,62.67 45.83,67.32 35.21,74.97 C24.59,82.62 13.67,77.07 10.38,74.67 C7.09,72.27 8.74,68.37 14.87,63.72 C21.01,59.07 32.34,60.21 34.62,61.92 C35.94,62.91 36.27,65.67 34.47,67.47 C32.67,69.27 30.57,70.02 28.33,68.37 C26.09,66.72 27.73,64.02 27.73,64.02 C27.73,64.02 25.49,63.87 23.84,66.88 C22.2,69.88 23.1,70.93 29.38,72.13 C35.67,73.33 37.01,69.88 38.81,66.27 C40.61,62.67 39.1,60 32.67,57.45 C26.21,54.89 15.15,55.77 6.77,64.62 L6.77,64.62 Z M118.61,9.87 C117.12,10.24 112.67,12.48 112.48,13.22 C112.48,13.22 121.77,11.18 122.88,11.55 C124,11.92 125.67,11.73 127.52,10.24 C129.38,8.75 133.09,6.15 131.6,4.28 C130.11,2.42 128.63,-0.56 126.21,0.37 C123.8,1.3 120.83,1.67 121.2,2.98 C121.57,4.28 121.94,5.4 122.49,5.59 C123.05,5.78 123.98,6.71 125.28,5.78 C126.58,4.85 126.76,3.55 126.76,3.55 C126.76,3.55 125.46,4.29 124.9,4.29 C124.35,4.29 123.6,4.11 123.79,3.55 C123.97,2.99 125.64,2.24 125.64,2.24 C125.64,2.24 127.5,1.87 128.24,2.43 C128.98,2.99 129.36,5.41 129.36,5.41 C129.36,5.41 127.5,8.76 126.58,9.13 C125.65,9.51 124.16,9.69 123.42,9.69 C122.7,9.68 120.09,9.49 118.61,9.87 L118.61,9.87 Z M95.54,12.96 C96.61,12.96 97.47,13.95 97.47,15.17 C97.47,16.39 96.61,17.38 95.54,17.38 C94.48,17.38 93.61,16.39 93.61,15.17 C93.61,13.95 94.48,12.96 95.54,12.96 L95.54,12.96 Z M109.16,11.91 C113.8,6.7 118.47,6.29 109.93,3.13 C103.82,0.87 95.49,1.82 88.84,3.96 C85.39,5.07 82.73,12.79 83.56,15.84 C84.39,18.89 82.87,19.58 82.87,19.58 C82.87,19.58 83.7,19.44 85.91,20.96 C88.12,22.49 88.4,23.73 93.09,24.29 C97.79,24.85 106.91,24.98 106.91,24.98 L117.05,14.39 L101.24,18.47 C101.25,18.46 107.02,14.32 109.16,11.91 L109.16,11.91 Z" id="hagedis_2_"></path>
        </g>
    </g>
</svg>
